<svg xmlns:xlink="http://www.w3.org/1999/xlink" xmlns="http://www.w3.org/2000/svg" version="1.1" viewBox="125.4 111.04 582.4 577.6" style="max-height: 500px" width="582.4" height="577.6"><defs></defs><g transform="scale(2,2)"><g id="background-5e8c4497"><rect class="dcg-svg-background" height="400" width="400" y="0" x="0" stroke="none" fill="white"></rect></g><g id="graphpaper-5e8c4497"><g id="axis-5e8c4497"><g><g><path stroke-dasharray="" stroke-width="2" stroke-miterlimit="2" stroke-opacity="0.9" d="" paint-order="fill stroke markers" class="dcg-svg-tickmark" stroke="rgb(0,0,0)" fill="none" data-index="0"></path></g></g></g></g><g id="expressions-5e8c4497"><g id="sketch-5e8c4497"><title>Expression 10</title></g><g id="sketch-5e8c4497"><title>Expression 13</title></g><g id="sketch-5e8c4497"><title>Expression 16</title></g><g id="sketch-5e8c4497"><title>Expression 24</title><path fill-opacity="0.4" d="" paint-order="stroke fill markers" stroke="none" fill="#fa7e19" data-index="1"></path><g><path stroke-dasharray="" stroke-width="5" stroke-miterlimit="10" stroke-linejoin="round" stroke-linecap="round" d="M 137.68525215678454 79.59152646733844 L 137.68525215678454 79.59152646733844 L 238.84765368356386 332.4975302842867" paint-order="fill stroke markers" class="dcg-svg-curve" stroke="#fa7e19" fill="none" data-index="2"></path></g></g><g id="sketch-5e8c4497"><title>Expression 25</title><path fill-opacity="0.4" d="" paint-order="stroke fill markers" stroke="none" fill="#fa7e19" data-index="3"></path><g><path stroke-dasharray="" stroke-width="5" stroke-miterlimit="10" stroke-linejoin="round" stroke-linecap="round" d="M 238.84765368356386 332.4975302842867 L 238.84765368356386 332.4975302842867 L 340.0100552103431 231.3351287575074" paint-order="fill stroke markers" class="dcg-svg-curve" stroke="#fa7e19" fill="none" data-index="4"></path></g></g><g id="sketch-5e8c4497"><title>Expression 26</title><path fill-opacity="0.4" d="" paint-order="stroke fill markers" stroke="none" fill="#fa7e19" data-index="5"></path><g><path stroke-dasharray="" stroke-width="5" stroke-miterlimit="10" stroke-linejoin="round" stroke-linecap="round" d="M 340.0100552103431 231.3351287575074 L 340.0100552103431 231.3351287575074 L 137.68525215678454 79.59152646733844" paint-order="fill stroke markers" class="dcg-svg-curve" stroke="#fa7e19" fill="none" data-index="6"></path></g></g><g id="sketch-5e8c4497"><title>Expression 39</title><path fill-opacity="0.4" d="" paint-order="stroke fill markers" stroke="none" fill="#6042a6" data-index="7"></path><g><path stroke-dasharray="" stroke-width="5" stroke-miterlimit="10" stroke-linejoin="round" stroke-linecap="round" d="M 68.75440017991116 198.8186425524712 L 68.75440017991116 198.8186425524712 L 68.84765625000001 193.7539569143533 L 69.14062500000001 188.5170914661084 L 69.62890625000001 183.3312710729387 L 70.31250000000003 178.17187530664353 L 71.19140625000003 173.03857592272396 L 72.265625 167.935034921954 L 73.53515625000001 162.86608628549027 L 75.09765625000003 157.52539333459572 L 76.85546875000001 152.30616746140362 L 78.80859375000003 147.1915170273184 L 81.05468750000003 141.95766767050821 L 83.59375000000001 136.666464384371 L 86.42578125000001 131.36447104525251 L 89.55078125 126.08826174325537 L 92.96875000000003 120.86782983213033 L 96.6796875 115.72881261609325 L 100.78125000000001 110.5770320695836 L 104.98046875000001 105.78422543935716 L 109.37500000000003 101.21296398706528 L 113.96484375000001 96.8587036489269 L 118.65234375 92.80076307019033 L 123.53515625000003 88.9451360780568 L 128.51562500000003 85.36332866585713 L 133.59375000000003 82.04263902909304 L 138.8671875 78.91877472187485 L 144.23828125000003 76.05121861538282 L 149.70703125000003 73.4349350912911 L 155.2734375 71.06702765161208 L 160.93750000000003 68.94646749874187 L 166.69921875000003 67.0739062617298 L 172.46093750000003 65.47632210791278 L 178.3203125 64.12358360928079 L 184.17968750000003 63.036910220398795 L 190.13671875000003 62.1983412399768 L 196.09375000000003 61.62329939641518 L 202.05078125000003 61.30847858604909 L 208.0078125 61.25209225113656 L 213.96484375000003 61.45382214011079 L 219.92187500000003 61.91480926280963 L 225.87890625 62.63768643429762 L 231.8359375 63.626654600191046 L 237.6953125 64.86470529264398 L 243.45703125 66.34586368994508 L 249.21875 68.09748066273914 L 254.8828125 70.09372396229855 L 260.44921875 72.33305670603602 L 265.91796875 74.81549737231171 L 271.2890625 77.54276376894296 L 276.5625 80.5184868780342 L 281.73828125 83.74851570369316 L 286.71875 87.17096690854606 L 291.6015625 90.85417324325954 L 296.38671875 94.81208225203216 L 300.9765625 98.9706776179413 L 305.37109375 103.32801524026331 L 309.66796875 107.99533935710241 L 313.76953125000006 112.88631516372635 L 317.67578125 118.01181187325636 L 321.38671875 123.38929135577035 L 324.70703125 128.71499231444534 L 327.734375 134.09903112103586 L 330.46875 139.5124244462533 L 332.91015625 144.9194171227017 L 335.05859375 150.27364666349928 L 336.9140625 155.51189448535382 L 338.57421875 160.88261362549457 L 339.94140625 166.02121893768424 L 341.11328125 171.2297189121491 L 342.08984375 176.52629594303534 L 342.87109375 181.95995238631298 L 343.359375 186.54520604145478 L 343.75 192.22839454703302 L 343.9079347771441 198.8186425524712" paint-order="fill stroke markers" class="dcg-svg-curve" stroke="#6042a6" fill="none" data-index="8"></path></g><path fill-opacity="0.4" d="" paint-order="stroke fill markers" stroke="none" fill="#6042a6" data-index="9"></path><g><path stroke-dasharray="" stroke-width="5" stroke-miterlimit="10" stroke-linejoin="round" stroke-linecap="round" d="M 68.75440017991116 198.8186425524712 L 68.75440017991116 198.8186425524712 L 68.84765625000001 203.8833281905891 L 69.14062500000001 209.120193638834 L 69.62890625000001 214.3060140320037 L 70.31250000000003 219.46540979829888 L 71.19140625000003 224.5987091822185 L 72.265625 229.7022501829884 L 73.53515625000001 234.77119881945214 L 75.09765625000003 240.11189177034674 L 76.85546875000001 245.3311176435388 L 78.80859375000003 250.445768077624 L 81.05468750000003 255.6796174344342 L 83.59375000000001 260.9708207205714 L 86.42578125000001 266.27281405968995 L 89.55078125 271.5490233616871 L 92.96875000000003 276.7694552728121 L 96.6796875 281.90847248884916 L 100.78125000000001 287.0602530353588 L 104.98046875000001 291.8530596655853 L 109.37500000000003 296.4243211178771 L 113.96484375000001 300.77858145601556 L 118.65234375 304.8365220347521 L 123.53515625000003 308.6921490268856 L 128.51562500000003 312.2739564390853 L 133.59375000000003 315.5946460758494 L 138.8671875 318.71851038306755 L 144.23828125000003 321.5860664895596 L 149.70703125000003 324.2023500136513 L 155.2734375 326.5702574533304 L 160.93750000000003 328.69081760620054 L 166.69921875000003 330.5633788432126 L 172.46093750000003 332.1609629970296 L 178.3203125 333.5137014956617 L 184.17968750000003 334.6003748845436 L 190.13671875000003 335.4389438649656 L 196.09375000000003 336.0139857085273 L 202.05078125000003 336.32880651889326 L 208.0078125 336.38519285380585 L 213.96484375000003 336.1834629648316 L 219.92187500000003 335.7224758421328 L 225.87890625 334.9995986706448 L 231.8359375 334.01063050475136 L 237.6953125 332.7725798122984 L 243.45703125 331.29142141499733 L 249.21875 329.5398044422033 L 254.8828125 327.5435611426439 L 260.44921875 325.30422839890645 L 265.91796875 322.8217877326307 L 271.2890625 320.0945213359994 L 276.5625 317.1187982269082 L 281.73828125 313.88876940124925 L 286.71875 310.46631819639634 L 291.6015625 306.78311186168287 L 296.38671875 302.8252028529103 L 300.9765625 298.6666074870011 L 305.37109375 294.3092698646791 L 309.66796875 289.64194574784 L 313.76953125000006 284.75096994121606 L 317.67578125 279.62547323168604 L 321.38671875 274.2479937491721 L 324.70703125 268.9222927904971 L 327.734375 263.53825398390654 L 330.46875 258.1248606586891 L 332.91015625 252.7178679822407 L 335.05859375 247.36363844144313 L 336.9140625 242.1253906195886 L 338.57421875 236.75467147944784 L 339.94140625 231.61606616725817 L 341.11328125 226.40756619279335 L 342.08984375 221.11098916190707 L 342.87109375 215.6773327186295 L 343.359375 211.0920790634877 L 343.75 205.4088905579094 L 343.9079347771441 198.8186425524712" paint-order="fill stroke markers" class="dcg-svg-curve" stroke="#6042a6" fill="none" data-index="10" style="opacity: 1;"></path></g></g><g id="sketch-5e8c4497"><title>Expression 57</title><path fill-opacity="0.4" d="" paint-order="stroke fill markers" stroke="none" fill="#c74440" data-index="11"></path><g><path stroke-dasharray="" stroke-width="5" stroke-miterlimit="10" stroke-linejoin="round" stroke-linecap="round" d="M 137.68525215678454 79.59152646733844 L 137.68525215678454 79.59152646733844 L 303.88062609363624 245.7869004041902" paint-order="fill stroke markers" class="dcg-svg-curve" stroke="#c74440" fill="none" data-index="12"></path></g></g><g id="sketch-5e8c4497"><title>Expression 58</title><path fill-opacity="0.4" d="" paint-order="stroke fill markers" stroke="none" fill="#c74440" data-index="13"></path><g><path stroke-dasharray="" stroke-width="5" stroke-miterlimit="10" stroke-linejoin="round" stroke-linecap="round" d="M 238.84765368356386 332.4975302842867 L 238.84765368356386 332.4975302842867 L 303.88062609363624 245.7869004041902" paint-order="fill stroke markers" class="dcg-svg-curve" stroke="#c74440" fill="none" data-index="14"></path></g></g><g id="sketch-5e8c4497"><title>Expression 59</title><path fill-opacity="0.4" d="" paint-order="stroke fill markers" stroke="none" fill="#c74440" data-index="15"></path><g><path stroke-dasharray="" stroke-width="5" stroke-miterlimit="10" stroke-linejoin="round" stroke-linecap="round" d="M 340.0100552103431 231.3351287575074 L 340.0100552103431 231.3351287575074 L 303.88062609363624 245.7869004041902" paint-order="fill stroke markers" class="dcg-svg-curve" stroke="#c74440" fill="none" data-index="16"></path></g></g><g id="sketch-5e8c4497"><title>Expression 65</title><path d="M 322.21945482864834 256.62572913920224 A 7.5 7.5 0 1 1 322.21945107864866 256.61822914045223 L 318.46945482864834 256.62572913920224 A 3.75 3.75 0 1 0 318.4694529536485 256.6294791385772 Z" paint-order="stroke fill markers" class="dcg-svg-point" stroke="none" fill="#6042a6" data-index="17"></path><path d="M 318.46945482864834 256.62572913920224 A 3.75 3.75 0 1 1 318.4694529536485 256.62197913982726 Z" paint-order="stroke fill markers" class="dcg-svg-point" stroke="none" fill="white" data-index="18"></path></g><g id="sketch-5e8c4497"><title>Expression 66</title><path d="M 331.32407096605846 219.19564057429386 A 7.5 7.5 0 1 1 331.3240672160588 219.18814057554385 L 327.57407096605846 219.19564057429386 A 3.75 3.75 0 1 0 327.5740690910586 219.19939057366886 Z" paint-order="stroke fill markers" class="dcg-svg-point" stroke="none" fill="#6042a6" data-index="19"></path><path d="M 327.57407096605846 219.19564057429386 A 3.75 3.75 0 1 1 327.5740690910586 219.19189057491886 Z" paint-order="stroke fill markers" class="dcg-svg-point" stroke="none" fill="white" data-index="20"></path></g><g id="sketch-5e8c4497"><title>Expression 67</title><path d="M 225.41750164354056 280.1721501842285 A 7.5 7.5 0 1 1 225.41749789354088 280.1646501854785 L 221.66750164354056 280.1721501842285 A 3.75 3.75 0 1 0 221.66749976854072 280.17590018360346 Z" paint-order="stroke fill markers" class="dcg-svg-point" stroke="none" fill="#6042a6" data-index="21"></path><path d="M 221.66750164354056 280.1721501842285 A 3.75 3.75 0 1 1 221.66749976854072 280.1684001848535 Z" paint-order="stroke fill markers" class="dcg-svg-point" stroke="none" fill="white" data-index="22"></path></g><g id="sketch-5e8c4497"><title>Expression 68</title><path d="M 195.7664529201742 206.0445283758126 A 7.5 7.5 0 1 1 195.76644917017452 206.0370283770626 L 192.0164529201742 206.0445283758126 A 3.75 3.75 0 1 0 192.01645104517436 206.0482783751876 Z" paint-order="stroke fill markers" class="dcg-svg-point" stroke="none" fill="#6042a6" data-index="23"></path><path d="M 192.0164529201742 206.0445283758126 A 3.75 3.75 0 1 1 192.01645104517436 206.0407783764376 Z" paint-order="stroke fill markers" class="dcg-svg-point" stroke="none" fill="white" data-index="24"></path></g><g id="sketch-5e8c4497"><title>Expression 69</title><path d="M 296.9288544469535 281.9163295208971 A 7.5 7.5 0 1 1 296.9288506969538 281.9088295221471 L 293.1788544469535 281.9163295208971 A 3.75 3.75 0 1 0 293.17885257195366 281.92007952027205 Z" paint-order="stroke fill markers" class="dcg-svg-point" stroke="none" fill="#6042a6" data-index="25"></path><path d="M 293.1788544469535 281.9163295208971 A 3.75 3.75 0 1 1 293.17885257195366 281.9125795215221 Z" paint-order="stroke fill markers" class="dcg-svg-point" stroke="none" fill="white" data-index="26"></path></g><g id="sketch-5e8c4497"><title>Expression 70</title><path d="M 246.34765368356386 155.46332761242292 A 7.5 7.5 0 1 1 246.34764993356418 155.4558276136729 L 242.59765368356386 155.46332761242292 A 3.75 3.75 0 1 0 242.59765180856402 155.46707761179792 Z" paint-order="stroke fill markers" class="dcg-svg-point" stroke="none" fill="#6042a6" data-index="27"></path><path d="M 242.59765368356386 155.46332761242292 A 3.75 3.75 0 1 1 242.59765180856402 155.4595776130479 Z" paint-order="stroke fill markers" class="dcg-svg-point" stroke="none" fill="white" data-index="28"></path></g><g id="sketch-5e8c4497"><title>Expression 71</title><path d="M 228.28293912521042 162.68921343576426 A 7.5 7.5 0 1 1 228.28293537521074 162.68171343701425 L 224.53293912521042 162.68921343576426 A 3.75 3.75 0 1 0 224.53293725021058 162.69296343513926 Z" paint-order="stroke fill markers" class="dcg-svg-point" stroke="none" fill="#6042a6" data-index="29"></path><path d="M 224.53293912521042 162.68921343576426 A 3.75 3.75 0 1 1 224.53293725021058 162.68546343638926 Z" paint-order="stroke fill markers" class="dcg-svg-point" stroke="none" fill="white" data-index="30"></path></g><g id="sketch-5e8c4497"><title>Expression 72</title><path d="M 278.86413988860005 289.1422153442385 A 7.5 7.5 0 1 1 278.8641361386004 289.1347153454885 L 275.11413988860005 289.1422153442385 A 3.75 3.75 0 1 0 275.1141380136002 289.14596534361345 Z" paint-order="stroke fill markers" class="dcg-svg-point" stroke="none" fill="#6042a6" data-index="31"></path><path d="M 275.11413988860005 289.1422153442385 A 3.75 3.75 0 1 1 275.1141380136002 289.1384653448635 Z" paint-order="stroke fill markers" class="dcg-svg-point" stroke="none" fill="white" data-index="32"></path></g><g id="sketch-5e8c4497"><title>Expression 73</title><path d="M 329.4453406519897 238.5610145808488 A 7.5 7.5 0 1 1 329.44533690199 238.55351458209879 L 325.6953406519897 238.5610145808488 A 3.75 3.75 0 1 0 325.69533877698984 238.5647645802238 Z" paint-order="stroke fill markers" class="dcg-svg-point" stroke="none" fill="#6042a6" data-index="33"></path><path d="M 325.6953406519897 238.5610145808488 A 3.75 3.75 0 1 1 325.69533877698984 238.5572645814738 Z" paint-order="stroke fill markers" class="dcg-svg-point" stroke="none" fill="white" data-index="34"></path></g><g id="sketch-5e8c4497"><title>Expression 79</title><path fill-opacity="0.4" d="" paint-order="stroke fill markers" stroke="none" fill="#6042a6" data-index="35"></path><g><path stroke-dasharray="" stroke-width="5" stroke-miterlimit="10" stroke-linejoin="round" stroke-linecap="round" d="M 186.31751313677373 222.30277147833067 L 186.31751313677373 222.30277147833067 L 186.42578125 218.44486336189726 L 186.81640625 214.03311565678774 L 187.40234375 210.13434383237518 L 188.18359375 206.38903271488374 L 189.16015625 202.7323593663653 L 190.33203125000003 199.14703636588 L 191.796875 195.39906382355184 L 193.45703125 191.78623328674524 L 195.41015625000003 188.122948674033 L 197.65625 184.46919103398437 L 200.1953125 180.87006147228004 L 203.125 177.24915792293302 L 206.25 173.87815919994364 L 209.47265625 170.82997202793644 L 212.89062500000003 167.99151524988724 L 216.40625 165.43292829482164 L 220.01953125 163.135308472445 L 223.828125 161.03660857267624 L 227.734375 159.1945983135302 L 231.73828125 157.60504146218346 L 235.74218750000003 156.29604085357914 L 239.84375000000003 155.2288674577319 L 244.04296875 154.40981640674113 L 248.2421875 153.8576750877159 L 252.44140625 153.5660111875842 L 256.640625 153.53151051567414 L 260.83984375 153.75378478049993 L 265.0390625 154.23534943236035 L 269.23828125 154.98176855614884 L 273.33984375 155.9750630662241 L 277.44140625 157.2415177087356 L 281.4453125 158.75690690058008 L 285.3515625 160.52056181724515 L 289.16015625 162.5353126278111 L 292.7734375 164.74412224426925 L 296.2890625 167.20478070857234 L 299.70703125 169.93311872393565 L 302.9296875 172.85859318769906 L 306.0546875 176.08521583251814 L 308.984375 179.53653116617824 L 311.71875 183.22814318753603 L 314.16015625000006 187.02620469168528 L 316.30859375 190.9009943084439 L 318.06640625 194.5932790050229 L 319.62890625 198.45695476336874 L 320.8984375 202.22334639961298 L 321.875 205.75802666030546 L 322.65625 209.31079296236453 L 323.2421875 212.85355919196257 L 323.6328125 216.3108145507502 L 323.828125 219.2866358052259 L 323.8942804353902 222.30277147833067" paint-order="fill stroke markers" class="dcg-svg-curve" stroke="#6042a6" fill="none" data-index="36"></path></g><path fill-opacity="0.4" d="" paint-order="stroke fill markers" stroke="none" fill="#6042a6" data-index="37"></path><g><path stroke-dasharray="" stroke-width="5" stroke-miterlimit="10" stroke-linejoin="round" stroke-linecap="round" d="M 186.31751313677373 222.30277147833067 L 186.31751313677373 222.30277147833067 L 186.42578125 226.16067959476413 L 186.81640625 230.57242729987365 L 187.40234375 234.47119912428622 L 188.18359375 238.21651024177766 L 189.16015625 241.8731835902961 L 190.33203125000003 245.45850659078138 L 191.796875 249.20647913310955 L 193.45703125 252.81930966991615 L 195.41015625000003 256.4825942826283 L 197.65625 260.136351922677 L 200.1953125 263.73548148438135 L 203.125 267.3563850337283 L 206.25 270.72738375671776 L 209.47265625 273.7755709287249 L 212.89062500000003 276.6140277067741 L 216.40625 279.1726146618397 L 220.01953125 281.4702344842164 L 223.828125 283.56893438398515 L 227.734375 285.4109446431312 L 231.73828125 287.0005014944779 L 235.74218750000003 288.3095021030822 L 239.84375000000003 289.3766754989295 L 244.04296875 290.19572654992027 L 248.2421875 290.74786786894555 L 252.44140625 291.03953176907714 L 256.640625 291.07403244098725 L 260.83984375 290.85175817616147 L 265.0390625 290.37019352430104 L 269.23828125 289.62377440051256 L 273.33984375 288.6304798904373 L 277.44140625 287.3640252479257 L 281.4453125 285.8486360560813 L 285.3515625 284.08498113941624 L 289.16015625 282.0702303288503 L 292.7734375 279.86142071239215 L 296.2890625 277.40076224808905 L 299.70703125 274.67242423272575 L 302.9296875 271.7469497689623 L 306.0546875 268.52032712414325 L 308.984375 265.0690117904831 L 311.71875 261.37739976912536 L 314.16015625000006 257.5793382649761 L 316.30859375 253.7045486482175 L 318.06640625 250.0122639516385 L 319.62890625 246.14858819329265 L 320.8984375 242.38219655704842 L 321.875 238.84751629635593 L 322.65625 235.29474999429686 L 323.2421875 231.75198376469882 L 323.6328125 228.2947284059112 L 323.828125 225.3189071514355 L 323.8942804353902 222.30277147833067" paint-order="fill stroke markers" class="dcg-svg-curve" stroke="#6042a6" fill="none" data-index="38"></path></g></g></g><g id="labels-5e8c4497"></g><path d="M 145.18525215678454 79.59152646733844 A 7.5 7.5 0 1 1 145.18524840678486 79.58402646858843 Z" paint-order="stroke fill markers" class="dcg-svg-point" stroke="none" fill="#6042a6" data-index="39"></path><path d="M 246.34765368356386 332.4975302842867 A 7.5 7.5 0 1 1 246.34764993356418 332.4900302855367 Z" paint-order="stroke fill markers" class="dcg-svg-point" stroke="none" fill="#6042a6" data-index="40"></path><path d="M 347.5100552103431 231.3351287575074 A 7.5 7.5 0 1 1 347.51005146034345 231.32762875875738 Z" paint-order="stroke fill markers" class="dcg-svg-point" stroke="none" fill="#6042a6" data-index="41"></path><g id="labels-5e8c4497"></g></g></svg>